<?xml version="1.0" encoding="utf-8"?>
<!-- Generator: Adobe Illustrator 15.1.0, SVG Export Plug-In . SVG Version: 6.00 Build 0)  -->
<!DOCTYPE svg PUBLIC "-//W3C//DTD SVG 1.1//EN" "http://www.w3.org/Graphics/SVG/1.1/DTD/svg11.dtd">
<svg version="1.1" id="Ebene_1" xmlns="http://www.w3.org/2000/svg" xmlns:xlink="http://www.w3.org/1999/xlink" x="0px" y="0px"
	 width="960px" height="234.162px" viewBox="0 0 960 234.162" enable-background="new 0 0 960 234.162" xml:space="preserve">
<g>
	<path d="M868.485,52.263c9.525-0.53,20.639-1.219,32.299-7.083c13.146-6.746,17.031-14.367,20.914-22.29h38.649v204.71H910.41
		V81.677c-11.422,4.688-14.769,6.812-41.927,7.058L868.485,52.263L868.485,52.263z"/>
</g>
<path fill="#BDCD00" enable-background="new    " d="M910.41,81.677c-11.422,4.688-14.769,6.812-41.927,7.058V52.263h0.001
	c0.242-0.014,0.491-0.028,0.737-0.042h-11.443v0.044c-0.159-0.001-0.321-0.006-0.479-0.006c-12.124,0-23.271,2.952-31.14,6.227
	c-8.851,4.263-12.129,8.196-17.045,13.441V56.849H758.31v48.567c-9.718-25.962-32.071-51.512-78.674-54.137
	c-47.882-2.634-78.445,18.863-91.452,51.079V56.194h-49.821v94.558c-11.467-23.11-42.412-29.94-69.819-34.901
	c-16.395-2.952-27.211-4.916-27.211-14.752c0-4.916,4.593-12.782,24.26-12.782c11.125,0,25.168,4.087,40.199,14.997l24.636-32.996
	c-13.588-8.584-35.349-19.369-67.127-19.369c-23.563,0-41.394,7.08-53.436,17.625v-14.02c-26.223,2.622-38.352,10.163-49.493,19.67
	v-18.03h-49.172v51.289c-3.5-11.164-9.067-22.325-18.032-31.949c-21.96-23.603-51.458-24.585-61.624-24.585
	c-32.431,0-53.969,12.253-67.602,29.562l8.154-23.988h-54.382l-11.015,41.954c-10.668,40.319-11.7,44.579-18.931,82.602
	C81.92,148.3,78.131,132.567,56.104,56.523H0.35l58.164,171.105h55.415l29.893-87.938c-0.085,1.908-0.128,3.797-0.128,5.662
	c0,56.051,35.73,88.502,86.536,88.502c27.534,0,49.824-10.489,64.576-24.256c6.74-6.242,11.77-12.677,16.392-19.3v37.328h50.482
	v-96.373c0-21.162,6.909-25.073,29.922-29.222c-0.267,2.09-0.417,4.187-0.417,6.279c0,12.782,5.245,24.583,12.782,32.122
	c7.538,7.541,18.026,11.801,28.518,14.752c7.537,2.293,15.403,3.934,22.946,5.246c9.831,1.639,21.632,2.619,29.169,6.555
	c2.951,1.641,6.558,3.935,6.558,9.834c0,12.785-18.355,16.719-30.479,16.719c-19.015,0-36.06-10.163-49.823-23.602l-31.797,28.847
	c10.818,10.159,35.401,33.104,82.932,33.104c32.22,0,64.646-12.562,76.373-38.188v33.928h49.822v-45.994
	c14.385,35.121,48.416,50.909,84.896,50.909c47.697,0,74.042-24.186,85.229-53.755v48.839h50.477v-92.438
	c0-21.307,0-42.609,26.554-42.609c9.836,0,18.686,3.933,22.618,13.111c1.964,4.586,2.293,10.16,2.293,25.564v96.373h50.152V115.483
	h0.008V81.677H910.41z M205.648,98.152c4.915-5.245,13.44-11.145,25.57-11.145c8.849,0,18.356,3.278,24.583,9.507
	c7.208,7.537,8.519,17.045,9.507,24.252v0.002h-69.82C197.128,113.56,198.763,105.693,205.648,98.152z M311.198,181.866
	l-33.767-17.174c-6.226,12.125-15.734,30.156-43.268,30.156c-27.205,0-39.334-21.31-39.005-42.615h116.039v29.633H311.198z
	 M673.079,192.554c-28.188,0-41.299-23.927-41.299-51.135c0-11.801,2.293-23.602,8.521-33.435
	c6.886-10.818,15.404-15.734,29.828-16.714c7.214-0.659,19.014-0.33,29.503,9.504c9.508,9.177,14.094,23.926,14.094,42.941
	C713.726,170.591,700.284,192.554,673.079,192.554z"/>
</svg>
